<?xml version="1.0" standalone="no"?>
<!DOCTYPE svg PUBLIC "-//W3C//DTD SVG 20010904//EN"
 "http://www.w3.org/TR/2001/REC-SVG-20010904/DTD/svg10.dtd">
<svg version="1.0" xmlns="http://www.w3.org/2000/svg"
 width="661.000000pt" height="661.000000pt" viewBox="0 0 661.000000 661.000000"
 preserveAspectRatio="xMidYMid meet">
<metadata>
Created by potrace 1.11, written by Peter Selinger 2001-2013
</metadata>
<g transform="translate(0.000000,661.000000) scale(0.100000,-0.100000)"
fill="#000000" stroke="none">
<path d="M3315 5517 c-32 -19 -280 -184 -380 -253 -65 -45 -187 -124 -192
-124 -3 0 -19 -10 -36 -22 -18 -13 -41 -28 -52 -34 -61 -33 -236 -142 -270
-168 -54 -40 -143 -133 -150 -157 -4 -10 -11 -19 -16 -19 -5 0 -9 -5 -9 -10 0
-6 -11 -32 -24 -59 -23 -48 -35 -85 -42 -126 -1 -11 -6 -31 -9 -45 -4 -14 -8
-502 -10 -1085 -1 -583 -6 -1078 -10 -1100 -15 -85 -48 -158 -93 -204 -7 -7
-12 -15 -10 -16 6 -6 133 26 200 50 59 21 120 52 230 114 16 9 28 19 28 24 0
4 6 7 14 7 8 0 16 3 18 8 2 4 26 24 54 44 96 70 169 170 190 260 3 13 7 140 8
283 1 143 5 262 9 263 4 2 32 -4 62 -14 62 -19 123 -76 150 -141 15 -34 45
-143 59 -213 3 -14 12 -52 20 -86 8 -34 17 -72 20 -85 2 -13 10 -46 16 -74 6
-27 13 -59 16 -70 2 -11 7 -33 10 -50 4 -16 8 -39 10 -50 1 -11 3 -21 4 -22 3
-4 5 -10 15 -63 5 -25 9 -47 10 -50 5 -19 26 -120 30 -140 5 -25 11 -54 21
-100 8 -36 15 -79 21 -126 4 -35 1 -44 -18 -58 -13 -9 -33 -16 -45 -16 -21 0
-161 47 -179 60 -12 9 -101 39 -134 45 -12 2 -30 6 -39 9 -9 3 -33 8 -52 11
-19 3 -60 12 -90 20 -30 7 -68 16 -85 19 -16 3 -41 7 -55 11 -124 28 -293 37
-400 20 -30 -4 -62 -9 -70 -9 -9 -1 -21 -5 -28 -10 -6 -4 -12 -5 -12 -2 0 3
-24 -2 -52 -11 -29 -8 -57 -16 -63 -18 -5 -1 -19 -6 -30 -10 -11 -4 -47 -19
-80 -32 -33 -13 -89 -41 -125 -62 -36 -22 -69 -40 -75 -42 -5 -1 -15 -7 -21
-13 -24 -23 -54 -46 -60 -46 -3 0 -11 -6 -19 -12 -7 -7 -37 -33 -66 -58 -74
-63 -152 -143 -218 -225 -31 -38 -61 -76 -68 -83 -7 -7 -20 -26 -30 -42 -9
-17 -21 -30 -25 -30 -4 0 -8 -7 -8 -15 0 -8 -4 -15 -9 -15 -5 0 -14 -13 -21
-30 -7 -16 -16 -30 -21 -30 -5 0 -9 -7 -9 -15 0 -8 -4 -15 -10 -15 -5 0 -10
-11 -10 -25 0 -14 3 -25 8 -25 4 0 31 16 60 36 148 99 419 211 556 229 112 14
151 18 211 18 63 -1 177 -9 215 -17 226 -44 419 -118 602 -233 21 -13 42 -23
48 -23 5 0 10 -3 10 -7 0 -5 14 -16 31 -26 30 -17 32 -17 44 0 23 33 104 138
118 153 7 8 29 36 47 63 18 26 37 47 42 47 4 0 8 7 8 15 0 8 5 15 10 15 6 0
10 6 10 14 0 8 4 16 8 18 5 2 61 73 126 158 111 147 136 175 136 152 0 -6 10
-32 22 -59 11 -26 22 -52 23 -58 2 -5 24 -54 49 -107 47 -100 110 -198 128
-198 5 0 6 -5 3 -10 -3 -6 -3 -10 2 -10 4 0 24 -15 43 -33 47 -43 127 -88 180
-103 8 -2 40 -11 70 -19 70 -20 144 -21 172 -1 12 9 36 41 53 73 32 58 53 95
130 233 84 151 138 247 181 330 11 19 24 38 29 42 7 5 7 8 0 8 -6 0 -6 3 1 8
6 4 41 63 79 132 83 151 79 144 282 508 89 161 163 297 163 302 0 6 4 10 8 10
4 0 13 12 19 28 6 15 19 38 27 52 44 71 186 331 186 340 0 5 3 10 8 10 4 0 18
25 32 55 14 30 28 55 33 55 4 0 7 4 7 9 0 5 27 56 60 114 33 59 60 111 60 117
0 5 3 10 8 10 4 0 18 25 32 55 14 30 28 55 33 55 4 0 7 4 7 9 0 5 27 57 60
115 33 58 60 110 60 116 0 5 4 10 9 10 5 0 14 12 20 28 6 15 29 59 51 97 22
39 45 81 51 95 5 13 13 27 17 30 4 3 20 30 36 60 40 77 68 122 72 118 2 -2 6
-31 10 -63 3 -33 7 -62 9 -65 2 -3 6 -34 10 -70 4 -36 9 -74 10 -85 2 -11 4
-27 5 -35 1 -9 6 -4 11 10 9 22 54 169 64 210 4 15 49 165 86 290 21 69 23 76
38 130 5 19 21 76 36 125 15 50 28 95 30 100 1 6 4 17 7 25 18 48 46 146 43
148 -3 3 -121 -74 -135 -88 -3 -3 -27 -21 -55 -40 -27 -19 -51 -38 -53 -42 -2
-4 -10 -8 -18 -8 -8 0 -14 -4 -14 -10 0 -5 -5 -10 -11 -10 -6 0 -17 -6 -24
-12 -27 -24 -40 -34 -101 -76 -34 -23 -69 -48 -77 -57 -9 -8 -18 -15 -22 -15
-3 0 -55 -36 -115 -80 -60 -44 -114 -80 -119 -80 -5 0 -11 -4 -13 -8 -1 -5
-27 -26 -55 -46 -59 -42 -64 -49 -30 -41 12 3 33 7 47 9 34 5 89 15 125 21 17
3 43 8 58 10 15 2 46 7 68 10 40 6 40 6 28 -17 -7 -12 -17 -28 -23 -34 -6 -6
-18 -22 -26 -34 -8 -12 -27 -39 -41 -59 -14 -20 -51 -74 -83 -121 -32 -47 -62
-87 -66 -90 -4 -3 -12 -14 -18 -26 -10 -20 -332 -488 -349 -509 -5 -5 -26 -37
-48 -70 -21 -33 -43 -64 -48 -70 -4 -5 -86 -122 -181 -260 -212 -308 -288
-417 -298 -430 -14 -18 -72 -99 -107 -150 -19 -28 -40 -53 -45 -57 -7 -5 -7
-8 -1 -8 6 0 5 -4 -2 -8 -7 -4 -25 -26 -40 -49 -118 -172 -231 -272 -312 -276
-52 -2 -76 20 -90 86 -6 29 -13 57 -15 62 -1 6 -6 24 -11 40 -22 86 -89 318
-107 370 -11 33 -21 66 -21 73 0 6 -4 12 -9 12 -4 0 -8 7 -8 15 0 9 -20 58
-44 109 -84 181 -172 295 -309 404 -51 40 -56 47 -40 55 10 6 20 13 23 17 3 4
43 40 90 81 47 41 98 89 115 108 16 19 40 45 53 58 44 44 156 219 198 308 38
83 77 193 88 255 2 14 5 25 6 25 3 0 9 40 19 115 10 77 11 360 2 360 -4 0 -6
17 -6 38 -1 52 -31 172 -67 267 -63 163 -195 327 -336 416 -57 36 -111 38
-167 6z m-197 -421 c51 -30 110 -96 150 -167 25 -45 75 -179 66 -179 -3 0 -1
-8 5 -17 5 -10 12 -38 16 -63 4 -25 8 -54 10 -65 19 -101 28 -213 27 -325 -1
-95 -10 -198 -17 -210 -2 -4 -7 -29 -11 -56 -3 -27 -11 -55 -16 -61 -6 -7 -8
-13 -5 -13 10 0 -32 -112 -74 -194 -54 -107 -103 -171 -218 -287 -113 -112
-151 -141 -211 -161 -25 -8 -53 -19 -62 -23 -15 -6 -18 -2 -18 26 -1 19 0 286
0 594 0 308 0 592 0 630 -1 39 -1 75 -1 80 0 6 1 48 1 95 1 123 15 180 62 252
48 74 90 113 160 149 61 31 76 30 136 -5z"/>
<path d="M1328 5485 c-2 -2 -28 -5 -58 -6 -130 -6 -272 -70 -370 -167 -92 -92
-134 -165 -169 -292 -20 -75 -29 -260 -12 -260 6 0 37 26 68 58 84 84 155 116
263 119 91 2 149 -11 300 -67 47 -17 94 -33 105 -35 11 -2 35 -7 54 -10 19 -4
44 -11 56 -15 26 -10 285 -7 330 4 224 52 397 192 528 427 15 26 23 49 20 53
-4 3 -1 6 5 6 7 0 12 4 12 9 0 5 5 22 12 38 25 61 45 123 41 127 -3 2 -23 -12
-44 -33 -43 -40 -134 -99 -165 -106 -10 -3 -41 -11 -69 -19 -109 -30 -248 -11
-490 69 -60 20 -114 37 -120 39 -5 1 -16 5 -22 9 -7 5 -13 6 -13 3 0 -3 -18 1
-40 9 -22 8 -40 12 -40 10 0 -3 -12 0 -27 6 -15 6 -50 12 -78 15 -27 3 -55 7
-62 9 -6 2 -13 2 -15 0z"/>
<path d="M1910 4680 c-8 -5 -77 -34 -152 -65 -231 -92 -284 -121 -350 -188
-44 -43 -72 -91 -94 -157 -4 -14 -8 -158 -9 -320 l0 -295 -120 -1 c-122 0
-214 -14 -263 -40 -15 -8 -31 -14 -36 -14 -5 0 -29 -16 -53 -36 -53 -44 -89
-116 -100 -204 -13 -100 -6 -229 16 -310 21 -75 25 -86 43 -112 10 -14 18 -30
18 -35 0 -4 16 -23 37 -42 l36 -33 18 35 c27 52 73 93 125 111 53 18 228 16
247 -3 9 -9 12 -171 12 -604 1 -485 3 -591 14 -589 11 2 75 46 91 62 3 3 25
19 49 35 25 17 76 54 115 82 39 29 82 60 96 70 49 35 155 150 179 193 28 55
51 115 58 155 3 17 8 50 13 74 4 24 6 287 3 585 -6 720 -5 879 2 1086 7 208 9
227 17 236 4 3 3 16 -2 29 -5 13 -7 25 -5 27 3 2 7 31 10 64 13 145 17 180 21
197 6 19 -11 22 -36 7z"/>
</g>
</svg>
